<?xml version="1.0" encoding="utf-8"?>
<!-- Generator: Adobe Illustrator 27.6.1, SVG Export Plug-In . SVG Version: 6.00 Build 0)  -->
<svg version="1.1" id="katman_1" xmlns="http://www.w3.org/2000/svg" xmlns:xlink="http://www.w3.org/1999/xlink" x="0px" y="0px"
	 viewBox="0 0 769.6 238.7" style="enable-background:new 0 0 769.6 238.7;" xml:space="preserve">
<style type="text/css">
	.st0{fill-rule:evenodd;clip-rule:evenodd;fill:#339933;}
	.st1{fill-rule:evenodd;clip-rule:evenodd;fill:#21A321;}
</style>
<path class="st0" d="M691.7,235.4h-51.4l-16.8-48.5h-102l-16.4,48.5h-51.7L543.7,0H581c12.7,0,20.8,3.9,24.1,12.9
	c3.3,9,44.4,113.7,44.4,113.7h-48.1l-29.2-79.5l-37,100.2h103.3c13.8,0,21.5,4.5,25.1,15.7l30.2,74.4 M238.3,235.4h-51.4l-16.8-48.5
	h-102l-16.4,48.5H0L90.3,0h37.3c12.7,0,20.8,3.9,24.1,12.9c3.3,9,44.4,113.7,44.4,113.7H148l-29.2-79.5l-37,100.2h103.3
	c13.9,0,21.4,4.5,25.1,15.7l30.2,74.4 M344.6,192.8c45.5,0,64.7-21.9,64.7-75s-18.2-76.6-58.7-76.6h-45.5v151.6H344.6L344.6,192.8z
	 M257.1,0h93.5c73,0,108.8,38.3,108.8,117.8c0,43.9-13.9,77-38.8,96.6c-23.2,18.3-49.1,21-83.2,21h-80.3L257.1,0L257.1,0L257.1,0z"
	/>
<path class="st1" d="M747.4,212.4c-1.1-4.8-3.1-7.7-6.7-8.8v-0.4c4.4-1.3,7.5-4.4,7.5-8.5c0-3.3-1.5-6.1-3.5-7.7
	c-2.7-1.8-5.8-2.8-12.7-2.8c-6,0-10.7,0.6-14,1.3v35.7h8.4v-14.2h4c4.7,0,6.9,1.8,7.5,5.7c1.1,4.2,1.8,7.2,2.9,8.5h9.1
	C749.1,220.1,748.5,217.9,747.4,212.4L747.4,212.4z M730.7,201h-4v-10.3c0.9-0.2,2.4-0.4,4.7-0.4c5.3,0,7.8,2.2,7.8,5.5
	C739.2,199.5,735.4,201,730.7,201L730.7,201z"/>
<path class="st1" d="M732.5,166.6h-0.2c-20.8,0-37.5,16-37.5,35.9s16.6,36.1,37.5,36.1s37.3-15.8,37.3-36.1S753.4,166.6,732.5,166.6
	L732.5,166.6z M732.5,231.2c-16.4,0-28.4-12.7-28.4-28.7s12-28.7,28-28.7h0.2c16.2,0,28,12.9,28,28.7S748.5,231.4,732.5,231.2
	L732.5,231.2z"/>
</svg>
