<?xml version="1.0" encoding="utf-8"?>
<!-- Generator: Adobe Illustrator 27.6.1, SVG Export Plug-In . SVG Version: 6.00 Build 0)  -->
<svg version="1.1" id="layer" xmlns="http://www.w3.org/2000/svg" xmlns:xlink="http://www.w3.org/1999/xlink" x="0px" y="0px"
	 viewBox="0 0 600 163.8" style="enable-background:new 0 0 600 163.8;" xml:space="preserve">
<style type="text/css">
	.st0{fill:#00A1E3;}
	.st1{fill:#666B71;}
	.st2{fill:#898A8E;}
	.st3{fill:#EF8200;}
</style>
<path class="st0" d="M272.5,88.7c0,2.1-0.4,4-1.1,5.8s-1.7,3.3-3,4.6c-1.3,1.3-2.8,2.3-4.6,3c-1.8,0.7-3.7,1.1-5.9,1.1
	c-2.1,0-4.1-0.4-5.8-1.1c-1.8-0.7-3.3-1.7-4.6-3c-1.3-1.3-2.3-2.8-3-4.6c-0.7-1.8-1.1-3.7-1.1-5.8c0-2.1,0.4-4,1.1-5.8
	s1.7-3.3,3-4.6c1.3-1.3,2.8-2.3,4.6-3c1.8-0.7,3.7-1.1,5.8-1.1c2.1,0,4.1,0.4,5.9,1.1s3.3,1.7,4.6,3c1.3,1.3,2.3,2.8,3,4.6
	C272.1,84.7,272.5,86.7,272.5,88.7 M269.2,88.7c0-1.6-0.3-3.2-0.8-4.6s-1.3-2.6-2.2-3.7c-1-1-2.2-1.9-3.5-2.5
	c-1.4-0.6-2.9-0.9-4.6-0.9s-3.3,0.3-4.6,0.9c-1.4,0.6-2.5,1.4-3.5,2.5c-1,1-1.7,2.3-2.2,3.7c-0.5,1.4-0.8,2.9-0.8,4.6
	c0,1.6,0.3,3.2,0.8,4.6s1.3,2.6,2.2,3.7c1,1,2.1,1.8,3.5,2.4s2.9,0.9,4.6,0.9s3.3-0.3,4.6-0.9c1.4-0.6,2.6-1.4,3.5-2.4
	c1-1,1.7-2.3,2.2-3.7S269.2,90.4,269.2,88.7"/>
<path class="st0" d="M286.1,77.7h-6.7v24.7h-3.2V77.7h-5.7V75h5.7v-8.2c0-3.2,0.8-5.6,2.3-7.2s3.7-2.4,6.4-2.4c0.5,0,1.1,0,1.6,0.1
	s1,0.2,1.5,0.3l-0.5,2.7c-0.8-0.2-1.7-0.3-2.7-0.3c-1.1,0-1.9,0.2-2.6,0.6s-1.3,0.9-1.6,1.6c-0.4,0.6-0.7,1.4-0.8,2.3
	c-0.2,0.9-0.2,1.8-0.2,2.8v7.8h6.7v2.6H286.1z"/>
<path class="st0" d="M328.7,106.5c-3.2,0.8-6.7,1.2-10.5,1.2c-3.9,0-7.5-0.6-10.8-1.9s-6.1-3-8.5-5.3s-4.2-5-5.6-8.1
	c-1.3-3.2-2-6.7-2-10.5c0-3.9,0.7-7.5,2-10.6c1.4-3.2,3.2-5.9,5.6-8.1s5.2-3.9,8.4-5.1c3.2-1.2,6.7-1.8,10.4-1.8
	c3.9,0,7.5,0.6,10.8,1.8c3.3,1.2,6,2.8,8.1,4.7l-7.5,8.5c-1.2-1.3-2.7-2.4-4.6-3.3s-4-1.3-6.4-1.3c-2.1,0-4,0.4-5.7,1.1
	c-1.8,0.8-3.3,1.8-4.6,3.2c-1.3,1.4-2.3,3-3,4.8c-0.7,1.9-1.1,3.9-1.1,6.1c0,2.3,0.3,4.3,1,6.2c0.6,1.9,1.6,3.5,2.9,4.9
	s2.8,2.4,4.7,3.2c1.9,0.8,4,1.1,6.4,1.1c1.4,0,2.7-0.1,3.9-0.3c1.2-0.2,2.4-0.5,3.5-1v-8.9h-9.3v-9.5H337v25.9
	C334.7,104.7,331.9,105.7,328.7,106.5"/>
<polygon class="st0" points="344,106.4 344,57.4 376.9,57.4 376.9,67.4 355.4,67.4 355.4,76.7 375.7,76.7 375.7,86.1 355.4,86.1 
	355.4,96.3 378.1,96.3 378.1,106.4 "/>
<polygon class="st0" points="414.3,106.4 394.6,74.4 394.4,74.4 394.7,106.4 383.2,106.4 383.2,57.4 396.7,57.4 416.3,89.4 
	416.5,89.4 416.2,57.4 427.7,57.4 427.7,106.4 "/>
<polygon class="st0" points="435,106.4 435,57.4 467.9,57.4 467.9,67.4 446.4,67.4 446.4,76.7 466.7,76.7 466.7,86.1 446.4,86.1 
	446.4,96.3 469.2,96.3 469.2,106.4 "/>
<path class="st0" d="M500.4,106.4L489.8,87h-4v19.4h-11.5V57.5H493c2.3,0,4.6,0.2,6.9,0.7c2.2,0.5,4.2,1.3,6,2.5s3.2,2.7,4.3,4.6
	s1.6,4.2,1.6,7c0,3.3-0.9,6.1-2.7,8.4s-4.3,3.9-7.5,4.8l12.8,20.9H500.4z M499.9,72.4c0-1.2-0.2-2.1-0.7-2.8
	c-0.5-0.7-1.1-1.3-1.9-1.7c-0.8-0.4-1.6-0.7-2.6-0.8c-0.9-0.1-1.9-0.2-2.7-0.2h-6.3v11.4h5.6c1,0,2-0.1,3-0.2c1-0.2,1.9-0.4,2.8-0.9
	c0.8-0.4,1.5-1,2.1-1.8C499.7,74.7,499.9,73.7,499.9,72.4"/>
<path class="st0" d="M554.6,106.4l-3.8-9.6h-18.9l-3.6,9.6h-12.9l20.5-48.9h11.5l20.3,48.9H554.6z M541.5,70.5l-6.2,16.8h12.3
	L541.5,70.5z"/>
<polygon class="st0" points="569.1,106.4 569.1,57.4 580.9,57.4 580.9,96.1 599.9,96.1 599.9,106.4 "/>
<polygon class="st1" points="115.5,1.3 146.7,1.3 214.1,162.5 186.9,162.7 131,28.2 102.4,96.2 73.1,103.5 "/>
<path class="st2" d="M282.2,50.4l-3.8-9.6h-18.9l-3.6,9.6H243l20.5-48.9H275l20.3,48.9H282.2z M269.1,14.5l-6.2,16.8h12.3
	L269.1,14.5z"/>
<path class="st2" d="M330.5,49.5c-3.2,1.5-6.8,2.2-11,2.2c-3.8,0-7.3-0.6-10.5-1.9c-3.2-1.2-6-3-8.3-5.3s-4.2-5-5.5-8.2
	s-2-6.7-2-10.5c0-3.9,0.7-7.5,2-10.7c1.4-3.2,3.2-5.9,5.6-8.1c2.4-2.2,5.2-4,8.4-5.2c3.2-1.2,6.7-1.8,10.4-1.8
	c3.5,0,6.9,0.6,10.2,1.8c3.3,1.2,6,3,8.1,5.4l-8,8c-1.1-1.5-2.6-2.6-4.4-3.4c-1.8-0.7-3.6-1.1-5.5-1.1c-2.1,0-4,0.4-5.7,1.1
	c-1.7,0.8-3.2,1.8-4.5,3.1c-1.2,1.3-2.2,2.9-2.9,4.7c-0.7,1.8-1,3.8-1,6s0.3,4.2,1,6.1c0.7,1.8,1.6,3.4,2.9,4.7
	c1.2,1.3,2.7,2.3,4.4,3.1c1.7,0.7,3.6,1.1,5.6,1.1c2.4,0,4.4-0.5,6.2-1.4c1.7-0.9,3.2-2.1,4.2-3.6l8.2,7.7
	C336.4,46.1,333.7,48.1,330.5,49.5"/>
<path class="st2" d="M378.8,50.4l-3.8-9.6h-18.9l-3.6,9.6h-12.9l20.5-48.9h11.5l20.3,48.9H378.8z M365.6,14.5l-6.2,16.8h12.3
	L365.6,14.5z"/>
<path class="st2" d="M441.6,25.8c0,4.3-0.8,8-2.4,11.1s-3.7,5.7-6.3,7.7c-2.6,2-5.5,3.5-8.8,4.4s-6.6,1.4-10,1.4h-18.3V1.5h17.7
	c3.5,0,6.9,0.4,10.2,1.2c3.4,0.8,6.4,2.1,9,4s4.7,4.4,6.4,7.5C440.8,17.3,441.6,21.2,441.6,25.8 M429.3,25.8c0-2.8-0.5-5.1-1.4-6.9
	s-2.1-3.3-3.6-4.4s-3.2-1.9-5.1-2.3c-1.9-0.5-3.9-0.7-5.9-0.7h-5.9v28.6h5.6c2.1,0,4.2-0.2,6.1-0.7c2-0.5,3.7-1.3,5.2-2.4
	s2.7-2.6,3.6-4.4C428.9,30.8,429.3,28.5,429.3,25.8"/>
<polygon class="st2" points="448.1,50.4 448.1,1.5 481,1.5 481,11.4 459.5,11.4 459.5,20.7 479.8,20.7 479.8,30.1 459.5,30.1 
	459.5,40.3 482.2,40.3 482.2,50.4 "/>
<polygon class="st2" points="534.4,50.4 534.7,15.8 534.5,15.8 521.8,50.4 513.5,50.4 501.1,15.8 500.9,15.8 501.2,50.4 490,50.4 
	490,1.5 506.9,1.5 518,32.8 518.3,32.8 528.9,1.5 546,1.5 546,50.4 "/>
<polygon class="st2" points="581.2,29.7 581.2,50.4 569.4,50.4 569.4,29.7 551,1.5 565.3,1.5 575.8,19.6 586.2,1.5 600,1.5 "/>
<path class="st3" d="M288.8,137.9c0,4.3-0.8,8-2.4,11.1s-3.7,5.7-6.3,7.7c-2.6,2-5.5,3.5-8.8,4.4s-6.6,1.4-10,1.4h-18.2v-48.9h17.7
	c3.5,0,6.9,0.4,10.2,1.2c3.4,0.8,6.4,2.1,9,4s4.7,4.4,6.4,7.5C288,129.5,288.8,133.3,288.8,137.9 M276.5,137.9
	c0-2.8-0.5-5.1-1.4-6.9s-2.1-3.3-3.6-4.4s-3.2-1.9-5.1-2.3c-1.9-0.5-3.9-0.7-5.9-0.7h-5.9v28.6h5.6c2.1,0,4.2-0.2,6.1-0.7
	c2-0.5,3.7-1.3,5.2-2.4s2.7-2.6,3.6-4.4C276,142.9,276.5,140.7,276.5,137.9"/>
<polygon class="st3" points="293.1,162.5 293.1,113.6 326.1,113.6 326.1,123.6 304.6,123.6 304.6,132.8 324.9,132.8 324.9,142.3 
	304.6,142.3 304.6,152.4 327.3,152.4 327.3,162.5 "/>
<polygon class="st3" points="362.8,162.5 343.1,130.5 342.8,130.5 343.1,162.5 331.6,162.5 331.6,113.6 345.1,113.6 364.8,145.5 
	365,145.5 364.7,113.6 376.2,113.6 376.2,162.5 "/>
<polygon class="st3" points="403.7,123.7 403.7,162.5 391.9,162.5 391.9,123.7 378.1,123.7 378.1,113.6 417.6,113.6 417.6,123.7 "/>
<rect x="419.5" y="113.6" class="st3" width="11.9" height="48.9"/>
<path class="st3" d="M463.9,126.3c-1-1.3-2.3-2.3-4-3.1c-1.6-0.8-3.2-1.1-4.7-1.1c-0.8,0-1.6,0.1-2.4,0.2s-1.5,0.4-2.2,0.8
	c-0.6,0.4-1.2,0.9-1.6,1.5s-0.7,1.4-0.7,2.4c0,0.8,0.2,1.5,0.5,2.1s0.8,1,1.5,1.4s1.5,0.8,2.4,1.1c0.9,0.3,2,0.7,3.1,1.1
	c1.7,0.6,3.4,1.2,5.2,1.8c1.8,0.7,3.4,1.6,4.9,2.7s2.7,2.5,3.7,4.1s1.5,3.7,1.5,6.1c0,2.8-0.5,5.2-1.6,7.3c-1,2.1-2.4,3.7-4.2,5.1
	c-1.8,1.3-3.8,2.3-6,3c-2.3,0.6-4.6,1-7,1c-3.5,0-6.9-0.6-10.2-1.8c-3.3-1.2-6-3-8.2-5.2l7.7-7.9c1.2,1.5,2.8,2.7,4.7,3.7
	c2,1,3.9,1.5,5.8,1.5c0.9,0,1.7-0.1,2.6-0.3c0.8-0.2,1.6-0.5,2.2-0.9s1.1-1,1.5-1.7s0.6-1.5,0.6-2.5c0-0.9-0.2-1.7-0.7-2.3
	c-0.5-0.6-1.1-1.2-2-1.8c-0.9-0.5-1.9-1-3.2-1.5c-1.3-0.4-2.7-0.9-4.3-1.4c-1.6-0.5-3.1-1.1-4.6-1.8c-1.5-0.7-2.8-1.6-4-2.7
	s-2.1-2.4-2.8-3.9c-0.7-1.5-1.1-3.4-1.1-5.6c0-2.7,0.5-5,1.7-7c1.1-1.9,2.6-3.5,4.4-4.8c1.8-1.2,3.8-2.2,6.1-2.7
	c2.3-0.6,4.5-0.9,6.8-0.9c2.8,0,5.6,0.5,8.5,1.5s5.4,2.5,7.6,4.5L463.9,126.3z"/>
<polygon class="st3" points="499.1,123.7 499.1,162.5 487.3,162.5 487.3,123.7 473.5,123.7 473.5,113.6 513,113.6 513,123.7 "/>
<path class="st3" d="M541.1,162.5l-10.6-19.4h-4v19.4H515v-48.9h18.7c2.3,0,4.6,0.2,6.9,0.7c2.2,0.5,4.2,1.3,6,2.5
	c1.8,1.1,3.2,2.7,4.3,4.6s1.6,4.2,1.6,7c0,3.3-0.9,6.1-2.7,8.4s-4.3,3.9-7.5,4.8l12.8,20.9H541.1z M540.6,128.6
	c0-1.2-0.2-2.1-0.7-2.8c-0.5-0.7-1.1-1.3-1.9-1.7c-0.8-0.4-1.6-0.7-2.6-0.8c-0.9-0.1-1.9-0.2-2.7-0.2h-6.3v11.4h5.6c1,0,2-0.1,3-0.2
	c1-0.2,1.9-0.5,2.8-0.9c0.8-0.4,1.5-1,2.1-1.8C540.3,130.9,540.6,129.8,540.6,128.6"/>
<polygon class="st3" points="581,141.8 581,162.5 569.2,162.5 569.2,141.8 550.8,113.6 565.1,113.6 575.6,131.7 586,113.6 
	599.8,113.6 "/>
<path class="st2" d="M0,162.5h25.7c0,0,55.9-96.1,191.5-75.8C217.2,86.7,84.1,40,0,162.5"/>
<path class="st0" d="M38.9,162.5c0,0,68.2-96.5,178.4-75.8c0,0-89.4-10.1-153.2,75.8L38.9,162.5L38.9,162.5z"/>
<path class="st3" d="M78.8,162.5c0,0,67.5-87.7,138.5-75.8c0,0-53.1-1.6-115.7,75.8L78.8,162.5L78.8,162.5z"/>
</svg>
