<?xml version="1.0" encoding="utf-8"?>
<!-- Generator: Adobe Illustrator 27.6.1, SVG Export Plug-In . SVG Version: 6.00 Build 0)  -->
<svg version="1.1" id="Layer_1" xmlns="http://www.w3.org/2000/svg" xmlns:xlink="http://www.w3.org/1999/xlink" x="0px" y="0px"
	 viewBox="0 0 733.3 733.3" style="enable-background:new 0 0 733.3 733.3;" xml:space="preserve">
<style type="text/css">
	.st0{fill-rule:evenodd;clip-rule:evenodd;fill:#FFFFFF;}
	.st1{fill:#FFFFFF;}
</style>
<path class="st0" d="M366.7,566.7c110.5,0,200-89.5,200-200c0-110.5-89.5-200-200-200c-110.5,0-200,89.5-200,200
	C166.7,477.1,256.2,566.7,366.7,566.7z M366.7,500c73.6,0,133.3-59.7,133.3-133.3c0-73.6-59.7-133.3-133.3-133.3
	c-73.6,0-133.3,59.7-133.3,133.3C233.3,440.3,293,500,366.7,500z"/>
<path class="st1" d="M566.7,133.3c-18.4,0-33.3,14.9-33.3,33.3s14.9,33.3,33.3,33.3s33.3-14.9,33.3-33.3S585.1,133.3,566.7,133.3z"
	/>
<path class="st0" d="M21.8,109.2C0,152,0,208,0,320v93.3c0,112,0,168,21.8,210.8c19.2,37.6,49.8,68.2,87.4,87.4
	C152,733.3,208,733.3,320,733.3h93.3c112,0,168,0,210.8-21.8c37.6-19.2,68.2-49.8,87.4-87.4c21.8-42.8,21.8-98.8,21.8-210.8V320
	c0-112,0-168-21.8-210.8c-19.2-37.6-49.8-68.2-87.4-87.4C581.3,0,525.3,0,413.3,0H320C208,0,152,0,109.2,21.8
	C71.6,41,41,71.6,21.8,109.2z M413.3,66.7H320c-57.1,0-95.9,0.1-125.9,2.5c-29.2,2.4-44.2,6.7-54.6,12C114.4,94,94,114.4,81.2,139.5
	c-5.3,10.4-9.6,25.4-12,54.6c-2.5,30-2.5,68.8-2.5,125.9v93.3c0,57.1,0.1,95.9,2.5,125.9c2.4,29.2,6.7,44.2,12,54.6
	c12.8,25.1,33.2,45.5,58.3,58.3c10.4,5.3,25.4,9.6,54.6,12c30,2.4,68.8,2.5,125.9,2.5h93.3c57.1,0,95.9-0.1,125.9-2.5
	c29.2-2.4,44.2-6.7,54.6-12c25.1-12.8,45.5-33.2,58.3-58.3c5.3-10.4,9.6-25.4,12-54.6c2.4-30,2.5-68.8,2.5-125.9V320
	c0-57.1-0.1-95.9-2.5-125.9c-2.4-29.2-6.7-44.2-12-54.6C639.3,114.4,619,94,593.9,81.2c-10.4-5.3-25.4-9.6-54.6-12
	C509.3,66.7,470.4,66.7,413.3,66.7z"/>
</svg>
