<?xml version="1.0" encoding="UTF-8"?>
<svg id="Layer_1" data-name="Layer 1" xmlns="http://www.w3.org/2000/svg" viewBox="0 0 266.98 226.2">
  <defs>
    <style>
      .cls-1 {
        fill: #fff;
      }
    </style>
  </defs>
  <path class="cls-1" d="m266.28,37.78c-1.13-1.45-3.22-1.71-4.68-.58-7.47,5.81-15.11,10.31-22.9,13.51-1.58-16.8-14.09-32.67-33.44-42.06-2.09-1.01-4.3-1.95-6.6-2.8-.1-.04-.21-.08-.32-.12-8.44-3.09-18.15-4.95-28.24-4.61-.52-.1-1.04-.07-1.54.08-12.42.69-25.34,4.75-37.08,14-.04.03-.07.07-.11.1-.06.05-.12.1-.17.16-.09.09-.18.19-.26.29-.05.06-.09.11-.13.17-.09.13-.17.27-.24.42-.02.03-.04.06-.05.09-.08.18-.14.36-.19.55-.01.06-.02.11-.03.17-.03.14-.05.27-.06.41,0,.07,0,.14,0,.21,0,.13,0,.26.02.39,0,.07.01.14.03.22.02.14.06.28.1.42.02.06.03.11.05.17,0,.01,0,.02,0,.03.07.18.15.36.25.52,0,0,0,.02.01.03,2.91,4.83,7.73,10.74,14.12,16.64.23.29.49.53.81.74,6.52,5.89,14.58,11.72,23.88,16.39.13.08.27.15.42.21,7.43,3.69,15.63,6.63,24.45,8.27,5.2.96,10.35,1.45,15.46,1.45,7.79,0,15.47-1.14,23.03-3.38,3.63,34.9-3.95,67.33-11.15,88.8-9.98,29.74-23.52,51.75-32.87,62.44-7.18,8.22-10.5,8.46-10.85,8.46-8.5,0-15.23-21.56-21.17-40.58-8.34-26.68-16.96-54.27-35.43-54.27s-27.99,27.93-37.1,54.94c-6.31,18.71-13.45,39.91-21.44,39.91-4.81,0-18.78-14.59-32.49-41.97-15.05-30.04-23.67-62.88-23.67-90.12,0-42.54,9.57-68.57,28.45-77.36,34.94-16.27,91.57,30.82,92.14,31.29,1.41,1.18,3.51,1,4.69-.41,1.18-1.41,1-3.51-.4-4.69-2.45-2.06-60.45-50.29-99.23-32.24C10.87,14.01,0,42.08,0,87.44c0,28.23,8.89,62.17,24.38,93.1,11.38,22.72,27.69,45.65,38.45,45.65,12.77,0,19.71-20.6,27.75-44.44,7.97-23.63,16.99-50.41,30.78-50.41s21.81,26.35,29.07,49.59c7.59,24.29,14.14,45.26,27.54,45.26,4.3,0,9.64-3.61,15.87-10.73,9.77-11.17,23.87-34.04,34.17-64.7,7.52-22.41,15.44-56.46,11.31-93.12,9-3.46,17.81-8.51,26.39-15.19,1.45-1.13,1.71-3.22.58-4.68Zm-34.97,9.11c-3.84-2.76-9.32-6.44-16.11-10.33-1.08-3.05-4.18-11.25-8.96-19.86,13.12,7.46,22.27,18.58,25.07,30.2Zm-59.12.34c-5.48-2.76-10.5-5.95-14.97-9.31,7.04-.34,17.38-1.99,30.26-7.23,6.62,2.57,12.72,5.43,18.17,8.29-7.11,3.82-20.75,9.87-33.45,8.25Zm23.08-35.53c4.71,6.64,8.41,14.29,10.83,19.95-4.66-2.35-9.98-4.79-15.83-7.07-2.14-6.77-6.77-12.45-10.93-16.48,5.63.59,11.01,1.86,15.93,3.6Zm-26.6-3.83c2.46,1.75,9,6.8,12.96,13.61-11.07-3.63-23.59-6.41-36.84-7.03,7.81-4.11,15.95-6.11,23.88-6.59Zm-28.88,13.13c13.39.06,26.2,2.55,37.82,6.21-15.51,5.02-25.79,4.17-28.66,3.78-3.66-3.42-6.74-6.84-9.17-9.99Zm55.79,34.22c-3-.56-5.92-1.28-8.75-2.13,11.64-2.35,21.68-7.9,25.68-10.33,7.61,4.4,13.46,8.48,17.01,11.11-11.07,3.04-22.41,3.5-33.94,1.36Z"/>
</svg>