<?xml version="1.0" encoding="UTF-8"?>
<svg id="Layer_1" data-name="Layer 1" xmlns="http://www.w3.org/2000/svg" viewBox="0 0 327.88 44.95">
  <defs>
    <style>
      .cls-1 {
        fill: #fff;
      }
    </style>
  </defs>
  <g>
    <path class="cls-1" d="m111.95,30v1.68h3.78v1.58h-3.78v3.06h-1.74v-7.92h6.03v1.58h-4.29Z"/>
    <path class="cls-1" d="m127.13,36.33l-.72-1.78h-3.35l-.72,1.78h-1.78l3.39-7.97h1.61l3.39,7.97h-1.82Zm-2.4-5.88l-1.05,2.57h2.1l-1.05-2.57Z"/>
    <path class="cls-1" d="m140.87,36.33v-5.17l-2.23,3.38h-.05l-2.2-3.35v5.13h-1.71v-7.92h1.88l2.08,3.35,2.08-3.35h1.88v7.92h-1.73Z"/>
    <path class="cls-1" d="m149.09,36.33v-7.92h1.74v7.92h-1.74Z"/>
    <path class="cls-1" d="m157.33,36.33v-7.92h1.74v6.33h3.95v1.58h-5.69Z"/>
    <path class="cls-1" d="m171.34,33.18v3.15h-1.74v-3.12l-3.04-4.79h2.04l1.89,3.18,1.92-3.18h1.98l-3.04,4.76Z"/>
    <path class="cls-1" d="m190.98,36.33h-3.09v-7.92h3.09c2.49,0,4.21,1.71,4.21,3.93v.02c0,2.23-1.72,3.96-4.21,3.96Zm2.38-3.96c0-1.4-.96-2.39-2.38-2.39h-1.35v4.77h1.35c1.42,0,2.38-.96,2.38-2.36v-.02Z"/>
    <path class="cls-1" d="m201.25,36.33v-7.92h5.97v1.55h-4.24v1.61h3.73v1.55h-3.73v1.66h4.3v1.55h-6.03Z"/>
    <path class="cls-1" d="m218.9,36.33l-3.83-5.03v5.03h-1.72v-7.92h1.61l3.71,4.87v-4.87h1.72v7.92h-1.48Z"/>
    <path class="cls-1" d="m230.38,30.02v6.31h-1.74v-6.31h-2.41v-1.61h6.56v1.61h-2.41Z"/>
    <path class="cls-1" d="m238.71,36.33v-7.92h1.74v7.92h-1.74Z"/>
    <path class="cls-1" d="m249.77,36.44c-1.2,0-2.41-.42-3.36-1.27l1.03-1.23c.71.59,1.46.96,2.36.96.71,0,1.14-.28,1.14-.75v-.02c0-.44-.27-.67-1.59-1.01-1.59-.41-2.62-.85-2.62-2.42v-.02c0-1.44,1.15-2.39,2.77-2.39,1.15,0,2.14.36,2.94,1.01l-.91,1.31c-.7-.49-1.39-.78-2.06-.78s-1.02.31-1.02.69v.02c0,.52.34.69,1.71,1.04,1.61.42,2.51,1,2.51,2.37v.02c0,1.57-1.2,2.45-2.91,2.45Z"/>
    <path class="cls-1" d="m262.12,30.02v6.31h-1.74v-6.31h-2.41v-1.61h6.56v1.61h-2.41Z"/>
    <path class="cls-1" d="m275.19,36.33l-1.7-2.53h-1.37v2.53h-1.74v-7.92h3.62c1.87,0,2.99.98,2.99,2.61v.02c0,1.28-.69,2.08-1.7,2.45l1.93,2.83h-2.04Zm.03-5.21c0-.75-.52-1.13-1.37-1.13h-1.73v2.27h1.76c.85,0,1.33-.45,1.33-1.12v-.02Z"/>
    <path class="cls-1" d="m286.76,33.18v3.15h-1.74v-3.12l-3.04-4.79h2.04l1.89,3.18,1.92-3.18h1.98l-3.04,4.76Z"/>
    <path class="cls-1" d="m72.12,22.57v-13.83h10.43v2.71h-7.41v2.81h6.52v2.71h-6.52v2.9h7.51v2.71h-10.53Z"/>
    <path class="cls-1" d="m95.22,22.67h-2.69l-5.59-13.93h3.36l3.61,9.74,3.62-9.74h3.28l-5.59,13.93Z"/>
    <path class="cls-1" d="m105.71,22.57v-13.83h10.43v2.71h-7.41v2.81h6.52v2.71h-6.52v2.9h7.51v2.71h-10.53Z"/>
    <path class="cls-1" d="m130.12,22.57l-2.96-4.42h-2.39v4.42h-3.04v-13.83h6.32c3.26,0,5.21,1.72,5.21,4.56v.04c0,2.23-1.21,3.64-2.96,4.29l3.38,4.94h-3.56Zm.06-9.11c0-1.3-.91-1.98-2.39-1.98h-3.02v3.97h3.08c1.48,0,2.33-.79,2.33-1.96v-.04Z"/>
    <path class="cls-1" d="m145.43,22.81c-4.31,0-7.27-3.02-7.27-7.11v-.04c0-3.93,3.06-7.15,7.25-7.15,2.49,0,3.99.67,5.43,1.9l-1.92,2.31c-1.07-.89-2.01-1.4-3.62-1.4-2.21,0-3.97,1.96-3.97,4.31v.04c0,2.53,1.74,4.39,4.19,4.39,1.11,0,2.09-.28,2.87-.83v-1.98h-3.06v-2.63h6v6.01c-1.42,1.2-3.38,2.19-5.91,2.19Z"/>
    <path class="cls-1" d="m165.43,22.57l-2.96-4.42h-2.39v4.42h-3.04v-13.83h6.32c3.26,0,5.21,1.72,5.21,4.56v.04c0,2.23-1.21,3.64-2.96,4.29l3.38,4.94h-3.56Zm.06-9.11c0-1.3-.91-1.98-2.39-1.98h-3.02v3.97h3.08c1.48,0,2.33-.79,2.33-1.96v-.04Z"/>
    <path class="cls-1" d="m174.09,22.57v-13.83h10.43v2.71h-7.41v2.81h6.52v2.71h-6.52v2.9h7.51v2.71h-10.53Z"/>
    <path class="cls-1" d="m190.09,22.57v-13.83h10.43v2.71h-7.41v2.81h6.52v2.71h-6.52v2.9h7.51v2.71h-10.53Z"/>
    <path class="cls-1" d="m215.8,22.57l-6.7-8.79v8.79h-3v-13.83h2.8l6.48,8.51v-8.51h3v13.83h-2.59Z"/>
    <path class="cls-1" d="m238.57,22.57h-5.39v-13.83h5.39c4.35,0,7.35,2.98,7.35,6.87v.04c0,3.89-3,6.91-7.35,6.91Zm4.17-6.91c0-2.45-1.68-4.17-4.17-4.17h-2.35v8.34h2.35c2.49,0,4.17-1.68,4.17-4.13v-.04Z"/>
    <path class="cls-1" d="m251.39,22.57v-13.83h10.43v2.71h-7.41v2.81h6.52v2.71h-6.52v2.9h7.51v2.71h-10.53Z"/>
    <path class="cls-1" d="m277.1,22.57l-6.7-8.79v8.79h-3v-13.83h2.81l6.48,8.51v-8.51h3v13.83h-2.59Z"/>
    <path class="cls-1" d="m292.04,11.55v11.02h-3.04v-11.02h-4.21v-2.8h11.46v2.8h-4.21Z"/>
    <path class="cls-1" d="m309.86,22.57l-1.26-3.1h-5.85l-1.26,3.1h-3.1l5.93-13.93h2.81l5.93,13.93h-3.18Zm-4.19-10.27l-1.84,4.48h3.67l-1.84-4.48Z"/>
    <path class="cls-1" d="m317.95,22.57v-13.83h3.04v11.06h6.89v2.77h-9.94Z"/>
  </g>
  <path class="cls-1" d="m52.92,7.51c-.22-.29-.64-.34-.93-.12-1.48,1.15-3,2.05-4.55,2.68-.31-3.34-2.8-6.49-6.65-8.36-.42-.2-.85-.39-1.31-.56-.02,0-.04-.02-.06-.02-1.68-.61-3.61-.98-5.61-.92-.1-.02-.21-.01-.31.02-2.47.14-5.04.94-7.37,2.78,0,0-.01.01-.02.02-.01.01-.02.02-.03.03-.02.02-.04.04-.05.06,0,.01-.02.02-.03.03-.02.03-.03.05-.05.08,0,0,0,.01,0,.02-.02.04-.03.07-.04.11,0,.01,0,.02,0,.03,0,.03,0,.05-.01.08,0,.01,0,.03,0,.04,0,.03,0,.05,0,.08,0,.01,0,.03,0,.04,0,.03.01.06.02.08,0,.01,0,.02,0,.03,0,0,0,0,0,0,.01.04.03.07.05.1,0,0,0,0,0,0,.58.96,1.54,2.14,2.81,3.31.04.06.1.11.16.15,1.29,1.17,2.9,2.33,4.75,3.26.03.02.05.03.08.04,1.48.73,3.11,1.32,4.86,1.64,1.03.19,2.06.29,3.07.29,1.55,0,3.08-.23,4.58-.67.72,6.94-.78,13.38-2.22,17.65-1.98,5.91-4.67,10.28-6.53,12.41-1.43,1.63-2.09,1.68-2.16,1.68-1.69,0-3.03-4.28-4.21-8.06-1.66-5.3-3.37-10.79-7.04-10.79s-5.56,5.55-7.37,10.92c-1.25,3.72-2.67,7.93-4.26,7.93-.96,0-3.73-2.9-6.46-8.34C3.04,29.32,1.32,22.79,1.32,17.38,1.32,8.92,3.23,3.75,6.98,2c6.94-3.23,18.2,6.12,18.31,6.22.28.24.7.2.93-.08.24-.28.2-.7-.08-.93-.49-.41-12.01-9.99-19.72-6.41C2.16,2.78,0,8.36,0,17.38c0,5.61,1.77,12.35,4.85,18.5,2.26,4.52,5.5,9.07,7.64,9.07,2.54,0,3.92-4.09,5.52-8.83,1.58-4.7,3.38-10.02,6.12-10.02s4.33,5.24,5.78,9.86c1.51,4.83,2.81,8.99,5.47,8.99.86,0,1.92-.72,3.15-2.13,1.94-2.22,4.74-6.76,6.79-12.86,1.5-4.45,3.07-11.22,2.25-18.51,1.79-.69,3.54-1.69,5.24-3.02.29-.22.34-.64.12-.93Zm-6.95,1.81c-.76-.55-1.85-1.28-3.2-2.05-.21-.61-.83-2.24-1.78-3.95,2.61,1.48,4.43,3.69,4.98,6Zm-11.75.07c-1.09-.55-2.09-1.18-2.98-1.85,1.4-.07,3.45-.39,6.01-1.44,1.31.51,2.53,1.08,3.61,1.65-1.41.76-4.12,1.96-6.65,1.64Zm4.59-7.06c.94,1.32,1.67,2.84,2.15,3.96-.93-.47-1.98-.95-3.15-1.41-.42-1.35-1.35-2.47-2.17-3.27,1.12.12,2.19.37,3.17.71Zm-5.29-.76c.49.35,1.79,1.35,2.58,2.71-2.2-.72-4.69-1.27-7.32-1.4,1.55-.82,3.17-1.21,4.75-1.31Zm-5.74,2.61c2.66.01,5.21.51,7.52,1.23-3.08,1-5.13.83-5.69.75-.73-.68-1.34-1.36-1.82-1.99Zm11.09,6.8c-.6-.11-1.18-.25-1.74-.42,2.31-.47,4.31-1.57,5.1-2.05,1.51.87,2.68,1.68,3.38,2.21-2.2.6-4.45.7-6.74.27Z"/>
</svg>