<?xml version="1.0" encoding="utf-8"?>
<!-- Generator: Adobe Illustrator 27.6.1, SVG Export Plug-In . SVG Version: 6.00 Build 0)  -->
<svg version="1.1" id="Layer_1" xmlns="http://www.w3.org/2000/svg" xmlns:xlink="http://www.w3.org/1999/xlink" x="0px" y="0px"
	 viewBox="0 0 152.8 121.5" style="enable-background:new 0 0 152.8 121.5;" xml:space="preserve">
<style type="text/css">
	.st0{fill:#BF995E;}
	.st1{fill:#3A3A3C;}
	.st2{fill:#B0B0B1;}
	.st3{fill:#FEFEFE;}
	.st4{fill:#FBFBFB;}
	.st5{fill:#F7F7F7;}
	.st6{fill:#F4F4F4;}
	.st7{fill:#F9F9F9;}
	.st8{fill:#D4D4D5;}
	.st9{fill:#FCFCFC;}
	.st10{fill:#868687;}
	.st11{fill:#BF9A5E;}
	.st12{fill:#C09A5F;}
	.st13{fill:#C19C62;}
</style>
<g>
	<path class="st0" d="M108.7,76.3c-0.6-0.2-1.1-0.5-1.7-0.7c-0.5-0.2-0.9-0.2-1.4-0.1c-0.3-0.2-0.2-0.5-0.2-0.8c0-2.1,0-4.3,0-6.4
		c0-0.9,0-0.9-0.9-0.9c-2.2,0-4.4,0-6.5,0c-0.7,0-0.7,0-0.7,0.8c0,1.7,0,3.3,0,5c0,0.3,0.1,0.6-0.2,0.8c-0.5-0.4-0.9-0.9-1.4-1.4
		c-0.2,0.7,0.1,1.4-0.1,2.1c-0.2-0.2-0.2-0.5-0.2-0.8c0-1.9,0-3.8,0-5.8c0-0.7,0-0.7-0.8-0.8c-2.5,0-4.9,0-7.4,0
		c-0.3,0-0.6,0.1-0.9-0.2c-0.5-0.1-0.7-0.5-0.9-1c-0.7-1.9-1.5-3.8-2.2-5.8c-0.1-0.3-0.3-0.5-0.5-0.8c-1.7-1.7-3.4-3.4-5.1-5.1
		c-0.3-0.3-0.4-0.5-0.4-1c0.1-1.6,0.1-3.3,0.1-4.9c0.1-0.3,0.3-0.3,0.5-0.4c3.6-1.7,5.3-4.7,5.8-8.5c0.2-2,0.2-4-0.2-6
		c-0.6-2.7-1.9-5-4.3-6.6c-0.5-0.3-1.1-0.6-1.6-0.8c-0.2-0.1-0.4-0.1-0.5-0.3c0.3-0.1,0.2-0.4,0.2-0.6c-0.2-1,0.2-1.6,0.9-2.2
		c1.4-1.3,2.8-2.6,4.1-3.9c0.2-0.2,0.3-0.4,0.4-0.6c0.9-2.3,1.9-4.5,2.8-6.8c0.1-0.3,0.3-0.5,0.6-0.6c1.9-0.7,3.8-1.5,5.8-2.2
		c0.9-0.3,1.5-1.1,2.1-1.7c1.4-1.3,2.7-2.6,4-3.9C98.2,3.1,98.5,3,99,3c2.1,0.1,4.2,0.1,6.3,0.1c0.3,0,0.5,0,0.8-0.1
		c2.3-0.9,4.6-1.9,6.9-2.8c0.1,0,0.2-0.1,0.3-0.2c0.1,0,0.2,0,0.3,0c2.2,1,4.4,1.9,6.6,2.9c0.2,0.1,0.4,0.1,0.6,0.1
		c2.4,0,4.8,0,7.3,0c0.3,0,0.6,0.1,0.8,0.3c1.4,1.5,2.8,3,4.2,4.5c0.3,0.4,0.7,0.6,1.2,0.8c2.2,0.9,4.4,1.8,6.6,2.7
		c0.3,0.1,0.4,0.3,0.5,0.6c0.8,2,1.6,4,2.4,6c0.1,0.3,0.3,0.6,0.6,0.9c1.7,1.7,3.4,3.4,5.1,5.1c0.2,0.2,0.3,0.5,0.3,0.8
		c-0.1,2.2-0.1,4.4-0.1,6.5c0,0.3,0,0.5,0.2,0.8c0.9,2.3,1.9,4.5,2.8,6.8c0.1,0.3,0.1,0.5,0,0.8c-0.9,2-1.7,4-2.6,6
		c-0.1,0.3-0.2,0.6-0.2,0.9c0,2.4,0,4.7,0,7.1c0,0.5-0.1,0.8-0.5,1.2c-1.5,1.4-3,2.9-4.5,4.3c-0.2,0.2-0.4,0.4-0.5,0.7
		c-0.9,2.1-1.8,4.3-2.7,6.4c-0.2,0.5-0.4,0.9-0.9,1.1c-0.3,0.3-0.6,0.2-0.9,0.2c-2.9,0-5.8,0-8.6,0c-0.8,0-0.8,0-0.8,0.8
		c0,1.6,0,3.2,0,4.8c0,0.3,0.1,0.6-0.2,0.8c-0.1,0.1-0.2,0.2-0.3,0.2c-0.3-0.2-0.3-0.5-0.3-0.7c-0.3-1.5-0.9-2.9-2-4.1
		s-2.6-1.9-4.2-2.2c-2.6-0.5-5.3-0.6-7.9,0.1c-3.4,0.9-5.4,3.1-6.2,6.5c-0.2,0.7-0.2,1.4-0.3,2.1C108.8,76,108.9,76.2,108.7,76.3z"
		/>
	<path class="st1" d="M0.1,25.3c8.4,0,16.7,0,25.1,0c0.5,0,0.7,0.1,0.6,0.6c0,2.6,0,5.1,0,7.7c0,0.4-0.1,0.5-0.5,0.5
		c-2.2,0-4.4,0-6.7,0c-0.5,0-0.6,0.1-0.6,0.6c0,9.8,0,19.6,0,29.4c0,0.8,0.1,0.7-0.7,0.7c-3,0-6,0-9,0c-0.5,0-0.6-0.1-0.6-0.6
		c0-9.8,0-19.6,0-29.4c0-0.5-0.1-0.7-0.7-0.7c-2.3,0-4.7,0-7,0C0.1,31.1,0.1,28.2,0.1,25.3z"/>
	<path class="st1" d="M65,88c0-0.2,0-0.4,0-0.6c0-6.5,0-13.1,0-19.6c0-0.5,0.1-0.6,0.6-0.6c2.3,0,4.6,0,6.9,0c0.4,0,0.5,0,0.5,0.5
		c0,11,0,22.1,0,33.1c0,0.4-0.1,0.5-0.5,0.5c-2.8,0-5.6,0-8.4,0c-0.3,0-0.5-0.1-0.6-0.5c-1.8-6.7-3.6-13.4-5.4-20
		c0-0.2-0.1-0.3-0.2-0.5c0,0.2,0,0.4,0,0.6c0,6.6,0,13.2,0,19.7c0,0.6-0.2,0.7-0.7,0.6c-2.3,0-4.5,0-6.8,0c-0.4,0-0.5-0.1-0.5-0.5
		c0-11,0-22.1,0-33.1c0-0.4,0.1-0.5,0.5-0.5c2.8,0,5.7,0,8.5,0c0.4,0,0.5,0.1,0.6,0.5c1.7,6.6,3.5,13.2,5.2,19.9
		C64.8,87.7,64.9,87.9,65,88L65,88z"/>
	<path class="st1" d="M108.7,76.3c0.1-1.4,0.3-2.8,0.8-4.1c1-2.6,2.9-4.3,5.5-5.1c3-0.9,6-0.8,9,0c3.2,0.9,5,3.1,5.7,6.3
		c0,0.2,0.1,0.5,0.1,0.7c0.1,0.9,0.1,1.7,0.2,2.6c0,0.3-0.1,0.4-0.4,0.4c-2.4,0-4.8,0-7.2,0c-0.3,0-0.4-0.1-0.4-0.4
		c0-0.5,0-0.9-0.1-1.4c-0.2-0.2-0.2-0.5-0.3-0.8c-0.3-1.1-1.1-1.7-2-1.8c-1.1,0-2,0.6-2.3,1.7c-0.2,0.6-0.3,1.3-0.1,1.9
		c0,0.2,0.1,0.4,0,0.5c0.3,0.9,1,1.6,1.7,2.1c1.1,0.8,2.3,1.2,3.6,1.8c1.3,0.6,2.6,1.1,3.9,1.9c2.5,1.5,3.9,3.7,4.4,6.6
		c0.3,1.9,0.2,3.8-0.2,5.7c-0.8,3.2-2.7,5.3-5.9,6.3c-3.5,1.1-7.1,1.1-10.6,0.1c-3.4-1-5.2-3.4-5.6-6.9c-0.1-1-0.1-1.9-0.1-2.9
		c0-0.3,0.1-0.4,0.4-0.4c2.5,0,5,0,7.5,0c0.3,0,0.4,0.1,0.4,0.4c0,0.8,0,1.7,0.3,2.5c0.4,1.2,1.2,1.9,2.4,1.9s2.1-0.6,2.6-1.7
		c0.7-1.6,0.2-3.4-1.1-4.6c-0.9-0.7-1.9-1.2-2.9-1.7c-1.5-0.6-2.9-1.2-4.3-2c-3.2-1.8-4.7-4.6-4.7-8.2
		C108.7,77.3,108.7,76.8,108.7,76.3z"/>
	<path class="st1" d="M27.1,84.2c0-5.5,0-11,0-16.5c0-0.4,0.1-0.6,0.6-0.6c6.1,0,12.2,0,18.3,0c0.4,0,0.6,0.1,0.6,0.5
		c0,2.1,0,4.2,0,6.3c0,0.4-0.1,0.5-0.5,0.5c-3.3,0-6.5,0-9.8,0c-0.4,0-0.5,0.1-0.5,0.5c0,1.6,0,3.1,0,4.7c0,0.4,0.1,0.6,0.5,0.6
		c3,0,6.1,0,9.1,0c0.4,0,0.6,0.1,0.6,0.6c0,2,0,4,0,5.9c0,0.4-0.1,0.5-0.5,0.5c-3,0-6.1,0-9.1,0c-0.5,0-0.5,0.1-0.5,0.6
		c0,1.9,0,3.8,0,5.7c0,0.4,0.1,0.5,0.5,0.5c3.4,0,6.8,0,10.2,0c0.4,0,0.6,0.1,0.6,0.5c0,2.1,0,4.2,0,6.3c0,0.4-0.1,0.5-0.5,0.5
		c-6.3,0-12.6,0-18.9,0c-0.4,0-0.5-0.1-0.5-0.5C27.1,95.3,27.1,89.7,27.1,84.2z"/>
	<path class="st1" d="M86.3,67.2c2.9,0,5.7,0,8.6,0c0.5,0,0.7,0.1,0.7,0.7c0,2.3,0,4.6,0,6.9c-1.9,0-3.8,0.1-5.7,0
		c-0.6,0-0.7,0.1-0.7,0.7c0,8.4,0,16.8,0,25.2c0,0.5-0.2,0.6-0.6,0.6c-2.4,0-4.9,0-7.3,0c-0.5,0-0.6-0.1-0.6-0.6
		c0-8.4,0-16.8,0-25.2c0-0.5-0.1-0.7-0.7-0.7c-1.8,0-3.5,0-5.3,0c-0.4,0-0.5-0.1-0.5-0.5c0-2.2,0-4.4,0-6.7c0-0.4,0.1-0.5,0.5-0.5
		c3.7,0,7.4,0,11.1,0C86,67.2,86.1,67.2,86.3,67.2z"/>
	<path class="st1" d="M130.1,73.8c0-2,0-4.1,0-6.1c0-0.5,0.1-0.6,0.6-0.6c3.3,0,6.6,0,10,0s6.9,0,10.3,0c0.5,0,0.6,0.1,0.6,0.6
		c0,2.2,0,4.3,0,6.5c0,0.4-0.1,0.5-0.5,0.5c-1.8,0-3.5,0-5.3,0c-0.5,0-0.6,0.1-0.6,0.6c0,8.4,0,16.9,0,25.3c0,0.6-0.1,0.7-0.7,0.7
		c-2.4,0-4.9,0-7.3,0c-0.5,0-0.6-0.1-0.6-0.6c0-8.4,0-16.9,0-25.3c0-0.5-0.1-0.7-0.7-0.7c-1.7,0-3.4,0-5.1,0c-0.6,0-0.8-0.2-0.7-0.7
		C130.2,74,130.1,73.9,130.1,73.8z"/>
	<path class="st1" d="M97.1,73.9c0-2.1,0-4.1,0-6.2c0-0.4,0.1-0.6,0.5-0.6c2.5,0,5,0,7.5,0c0.5,0,0.5,0.2,0.5,0.6c0,2.6,0,5.2,0,7.8
		c0,8.4,0,16.7,0,25.1c0,0.5-0.1,0.7-0.7,0.7c-2.4,0-4.8,0-7.3,0c-0.5,0-0.6-0.2-0.6-0.6c0-8.7,0-17.4,0-26.1
		C97.1,74.4,97.1,74.2,97.1,73.9z"/>
	<path class="st1" d="M39,17.8c-11.9,0-23.8,0-35.7,0c-0.3,0-0.6,0-0.8,0.3C2,18.6,1.3,18.5,0.8,18c-0.4-0.5-0.4-1.3,0.1-1.7
		c0.5-0.4,1.3-0.4,1.7,0.1c0.2,0.4,0.5,0.4,0.8,0.4c23.8,0,47.6,0,71.4,0c0.3,0,0.7-0.1,0.7,0.5c0,0.5-0.2,0.6-0.6,0.6
		C62.9,17.8,51,17.8,39,17.8z"/>
	<path class="st1" d="M34.1,111.7c-10.3,0-20.6,0-30.9,0c-0.4,0-0.6,0.1-0.9,0.4c-0.5,0.5-1.2,0.4-1.7-0.1c-0.4-0.5-0.4-1.2,0-1.7
		c0.5-0.5,1.3-0.5,1.7,0c0.2,0.3,0.5,0.3,0.8,0.3c11.5,0,23,0,34.4,0c9.2,0,18.4,0,27.6,0c0.5,0,0.8,0.4,0.6,0.9
		c0,0.1-0.1,0.1-0.2,0.1c-0.1,0-0.3,0-0.4,0C54.8,111.7,44.5,111.7,34.1,111.7z"/>
	<path class="st1" d="M118.5,110.6c10.1,0,20.3,0,30.4,0c0.4,0,0.7,0,1-0.4c0.5-0.5,1.2-0.4,1.7,0.1c0.4,0.4,0.4,1.2,0,1.6
		c-0.5,0.4-1.3,0.5-1.7,0c-0.3-0.3-0.6-0.3-0.9-0.3c-20.3,0-40.6,0-60.9,0c-0.4,0-0.7,0.1-0.6-0.5c0-0.4,0.1-0.5,0.6-0.5
		C98.1,110.7,108.3,110.6,118.5,110.6z"/>
	<path class="st1" d="M77.5,120c-0.5-0.1-0.7,0-0.6,0.5c0,0.3,0,0.7-0.1,1c0,0.1,0,0.3-0.2,0.3s-0.2-0.2-0.2-0.3
		c-0.1-0.5-0.1-0.9-0.1-1.4c0-0.3-0.1-0.5-0.3-0.6c-0.4-0.2-0.7-0.6-0.5-1.1c0-0.1,0-0.2-0.1-0.3c-0.5-0.6-0.4-1.1,0.1-1.6
		c-0.9-0.6-1-1.4-0.3-2.4c-1-0.7-1.1-1-0.7-2.1c0.1-0.3-0.1-0.3-0.2-0.3c-0.8-0.4-1.2-1-1.1-1.9c0-0.5,0.3-0.9,0.8-1
		c0.7-0.1,1.3-0.1,1.9,0.4c0.2,0.1,0.3,0.3,0.2,0.6c-0.1,0.3-0.3,0.3-0.6,0.3s-0.5-0.1-0.8-0.2c-0.2-0.1-0.5,0-0.6,0.2
		s0.1,0.3,0.3,0.4c0.5,0.3,1.1,0.2,1.7,0.3c0.2,0,0.2-0.1,0.2-0.2c0-1.6,0-3.2,0-4.8c0-0.2-0.2-0.3-0.3-0.4
		c-0.5-0.4-0.5-1.1-0.1-1.5s1.1-0.4,1.5,0s0.4,1.1-0.1,1.5c-0.2,0.2-0.3,0.3-0.3,0.5c0,1.5,0,3,0,4.4c0,0.4,0.1,0.5,0.5,0.4
		c0.5-0.1,0.9-0.1,1.4-0.2c0.2-0.1,0.6-0.2,0.4-0.5c-0.1-0.3-0.4-0.3-0.7-0.1c-0.2,0.1-0.4,0.2-0.7,0.2c-0.2,0-0.4-0.1-0.5-0.3
		c-0.1-0.2,0-0.4,0.2-0.6c0.5-0.4,1.6-0.6,2.1-0.4c0.7,0.3,0.8,1.6,0.2,2.3c-0.3,0.3-0.8,0.4-0.9,0.7c-0.1,0.3,0.2,0.7,0.2,1.1
		c-0.1,0.5-0.3,0.8-0.7,1c-0.2,0.1-0.2,0.2-0.1,0.4c0.5,0.8,0.4,1.5-0.3,2.1c-0.2,0.1-0.2,0.2,0,0.3c0.1,0.1,0.1,0.3,0.2,0.5
		c0.2,0.5-0.5,0.8-0.3,1.4c0.2,0.6-0.3,0.9-0.7,1.2C77.3,119.8,77.4,119.8,77.5,120C77.6,119.9,77.6,119.9,77.5,120
		C77.6,120,77.5,120,77.5,120z"/>
	<path class="st1" d="M79.6,103.9c0.1,0,0.4,0.1,0.6,0.2c0.6,0.3,1.2,0.7,1.8,1c0.7,0.4,1.4,0.6,2.2,0.4c0.1,0,0.3-0.1,0.4,0
		c0.1,0.2-0.1,0.3-0.2,0.3c-0.5,0.4-1.1,0.7-1.8,0.9c-0.4,0.1-0.8,0.3-1.1,0.6c-0.5,0.5-1,0.6-1.6,0.3c-0.5-0.2-0.9-0.1-1.2,0.4
		c-0.2,0.4-0.6,0.4-1,0.3c-0.5-0.1-0.3-0.4-0.4-0.7c0-0.3,0-0.5,0-0.8c0-0.4,0-0.8,0.5-0.9c0.3-0.1,0.4-0.3,0.4-0.6
		c0.1-0.3,0.2-0.6,0.3-0.9C78.8,104,79,103.8,79.6,103.9z"/>
	<path class="st1" d="M76.1,107.2c0,0.1,0,0.3,0,0.4c0,0.3,0.1,0.6-0.3,0.7c-0.4,0.1-0.8,0.2-1.1-0.2c-0.3-0.5-0.7-0.6-1.3-0.4
		c-0.5,0.2-1,0.1-1.5-0.3c-0.3-0.3-0.7-0.5-1.2-0.7c-0.6-0.2-1.2-0.5-1.8-0.9c-0.1-0.1-0.3-0.2-0.2-0.3c0.1-0.2,0.2-0.1,0.3,0
		c0.8,0.2,1.6,0,2.3-0.5c0.5-0.3,1.1-0.7,1.7-1c1.1-0.5,1.6-0.3,1.9,0.8c0.1,0.5,0.3,1,0.9,1.1c0.2,0,0.2,0.2,0.2,0.3
		C76.1,106.7,76.1,106.9,76.1,107.2z"/>
	<path class="st0" d="M117.2,76.9c-0.3-0.9-0.3-1.8,0-2.6c0.4-1.1,1.3-1.7,2.4-1.7c1,0,1.7,0.7,2.1,1.8c0.1,0.3,0.2,0.6,0.2,1
		c-0.5-0.1-1,0.1-1.5,0.3C119.3,76,118.2,76.4,117.2,76.9z"/>
	<path class="st2" d="M77.5,120C77.5,119.9,77.5,119.9,77.5,120c0.2-0.1,0.3,0,0.5,0.1C77.8,120.2,77.7,120,77.5,120z"/>
	<path class="st3" d="M100.2,25.1c-0.6,3.1-1.1,6.3-1.7,9.4c-0.1,0.4-0.2,0.4-0.5,0.4c-0.6,0-1.3,0-1.9,0c-0.4,0-0.5-0.1-0.6-0.5
		c-0.5-3.1-1.1-6.2-1.7-9.4c-0.1,0.2-0.1,0.4-0.1,0.6c0,2.9,0,5.8,0,8.7c0,0.4-0.1,0.6-0.5,0.5c-0.8,0-1.7,0-2.5,0
		c-0.3,0-0.5-0.1-0.5-0.4c0-5.4,0-10.8,0-16.2c0-0.3,0.1-0.4,0.5-0.4c1.3,0,2.7,0,4,0c0.4,0,0.5,0.2,0.5,0.5c0.6,3,1.1,5.9,1.7,8.9
		c0,0.1,0.1,0.3,0.1,0.6c0.3-1.7,0.6-3.2,0.9-4.8c0.3-1.6,0.6-3.1,0.9-4.7c0.1-0.3,0.2-0.5,0.5-0.5c1.3,0,2.6,0,3.9,0
		c0.4,0,0.5,0.1,0.5,0.5c0,5.4,0,10.8,0,16.1c0,0.4-0.1,0.5-0.5,0.5c-0.8,0-1.7,0-2.5,0c-0.4,0-0.5-0.1-0.5-0.5c0-2.9,0-5.8,0-8.8
		C100.3,25.4,100.3,25.2,100.2,25.1C100.3,25.1,100.2,25.1,100.2,25.1z"/>
	<path class="st3" d="M90.3,47.8c0-0.5,0-1,0-1.6c0-0.3,0.1-0.5,0.4-0.5c1,0,1.9,0,2.9,0c0.3,0,0.5,0.1,0.5,0.4c0,0.8,0,1.6,0,2.4
		c0,0.6,0.3,0.9,0.9,1c0.5,0,0.8-0.2,0.8-0.7c0.2-1.3-0.1-2.3-1.1-3.1c-1.2-0.9-2.4-1.9-3.4-3.1c-0.6-0.7-0.9-1.5-0.9-2.5
		c0-0.6-0.1-1.1,0-1.7c0.2-1.4,1.1-2.3,2.4-2.7c1.5-0.5,3.1-0.5,4.6,0s2.3,1.5,2.3,3.1c0,0.8,0,1.6,0,2.3c0,0.3-0.1,0.4-0.4,0.4
		c-1,0-2,0-3,0c-0.3,0-0.4-0.1-0.3-0.4c0-0.7,0-1.4,0-2.1c0-0.6-0.4-1.1-0.9-1.1s-0.9,0.5-0.9,1.1c0,0.8,0.4,1.5,0.9,2
		c0.9,0.9,1.8,1.8,2.8,2.6c1.9,1.4,2,3.3,1.6,5.4c-0.4,2-1.8,3.1-4.1,3.2c-1,0.1-2.1,0-3.1-0.4c-1.3-0.5-2-1.5-2-2.9
		C90.3,48.7,90.3,48.3,90.3,47.8z"/>
	<path class="st3" d="M108,34.1c0,1.3,0,2.5,0,3.8c0,0.9,0,1.9,0,2.8c0,0.4-0.1,0.5-0.5,0.5c-0.8,0-1.7,0-2.5,0
		c-0.4,0-0.5-0.1-0.5-0.5c0-2.9,0-5.8,0-8.8c0-3.1,0-6.1,0-9.2c0-0.4,0.1-0.5,0.5-0.5c0.8,0,1.6,0,2.3,0c0.5,0,0.7,0.1,0.6,0.6
		c0,0.1,0,0.3,0,0.6c0.2-0.2,0.3-0.4,0.4-0.5c0.8-0.9,1.8-1.2,2.8-0.8s1.6,1.2,1.6,2.4c0,2.7,0,5.4,0,8.1c0,1.2-0.6,2.1-1.7,2.5
		c-1.1,0.4-2.2,0.1-2.9-0.8C108.2,34.2,108.2,34.1,108,34.1z"/>
	<path class="st3" d="M108.7,43.8c0-2.5,0-5,0-7.5c0-0.4,0.1-0.6,0.6-0.6c1.8,0.1,3.7-0.1,5.5,0.1c2.3,0.2,3.5,1.4,3.5,3.7
		c0,0.7,0,1.4,0,2.2c0,2.4-1.2,3.7-3.6,3.9c-0.6,0-1.1,0-1.7,0c-0.4,0-0.5,0.1-0.5,0.5c0,1.7,0,3.4,0,5.2c0,0.4-0.1,0.6-0.6,0.6
		c-0.9,0-1.8,0-2.7,0c-0.4,0-0.6-0.1-0.6-0.6C108.7,48.8,108.7,46.3,108.7,43.8z"/>
	<path class="st3" d="M123.6,50.8c-0.4,0.4-0.8,0.8-1.2,1c-1.6,0.9-3.4,0.2-3.8-1.6c-0.2-1-0.2-2-0.1-3c0.1-1,0.6-1.6,1.4-2.1
		c1-0.6,1.9-1.1,2.9-1.7c0.5-0.3,0.8-0.8,0.7-1.4c0-0.4-0.2-0.7-0.6-0.7c-0.4-0.1-0.7,0.2-0.8,0.6c-0.1,0.5,0,0.9,0,1.4
		c0,0.3-0.1,0.4-0.4,0.4c-0.9,0-1.8,0-2.8,0c-0.2,0-0.4,0-0.4-0.3c0-0.6,0-1.3,0.2-1.9c0.5-1.6,1.7-2.3,3.2-2.5
		c0.9-0.1,1.7-0.1,2.6,0.1c1.7,0.4,2.5,1.5,2.5,3.3c0,3,0,6.1,0,9.1c0,0.4-0.2,0.5-0.6,0.5c-0.8,0-1.5,0-2.3,0
		c-0.5,0-0.8-0.1-0.7-0.7C123.6,51.1,123.6,51,123.6,50.8z"/>
	<path class="st3" d="M132.7,50.9c-0.7,0.8-1.3,1.4-2.3,1.4c-1.4,0-2.5-1.1-2.5-2.4c0-3.5,0-6.9,0-10.4c0-0.3,0.1-0.4,0.4-0.4
		c0.9,0,1.7,0,2.6,0c0.4,0,0.5,0.2,0.5,0.5c0,2.8,0,5.6,0,8.4c0,0.2,0,0.5,0.1,0.7c0.2,0.3,0.4,0.5,0.8,0.4c0.4-0.1,0.6-0.3,0.6-0.6
		c0-0.2,0-0.4,0-0.6c0-2.8,0-5.5,0-8.3c0-0.5,0.1-0.6,0.6-0.6c0.8,0,1.6,0,2.4,0c0.3,0,0.5,0.1,0.5,0.5c0,4,0,7.9,0,11.9
		c0,0.4-0.1,0.5-0.5,0.5c-0.8,0-1.6,0-2.3,0c-0.5,0-0.8-0.1-0.7-0.7C132.7,51.1,132.7,51,132.7,50.9z"/>
	<path class="st3" d="M124.8,26.8c-0.6,0-1.2,0.2-1.6-0.1c-0.4-0.3-0.1-1-0.1-1.5s-0.3-0.8-0.7-0.8s-0.7,0.4-0.7,0.8
		c0,0.5,0.2,0.9,0.6,1.2c0.6,0.5,1.3,0.8,1.9,1.3c0.6,0.4,1.2,0.8,1.7,1.3c1.1,1.4,1.1,2.9,0.5,4.4c-0.6,1.4-1.8,2-3.3,2.1
		c-1,0.1-2,0.1-2.9-0.3c-1.3-0.6-1.9-1.6-2-3c0-0.5,0-1,0-1.5c0-0.3,0.1-0.5,0.4-0.5c0.9,0,1.8,0,2.7,0c0.3,0,0.4,0.1,0.4,0.4
		c0,0.6,0,1.1,0,1.7c0,0.6,0.3,0.9,0.8,0.9c0.4,0,0.7-0.3,0.7-0.9c0.1-1-0.3-1.7-1.1-2.2s-1.6-1-2.3-1.5c-1.4-1-1.9-2.3-1.5-3.9
		c0.4-1.4,1.4-2.3,3.1-2.5c1.1-0.2,2.2-0.2,3.3,0.3c1.3,0.5,2,1.6,2.1,3c0,1.4,0,1.4-1.4,1.4C125.1,26.8,124.9,26.8,124.8,26.8
		L124.8,26.8z"/>
	<path class="st3" d="M103.7,39c0,0.9,0,1.7,0,2.6c0,0.3,0,0.5,0.4,0.5c0.3,0,0.4,0.1,0.4,0.4c0,0.5,0,1,0,1.5
		c0,0.3-0.1,0.5-0.4,0.4c-0.4,0-0.4,0.1-0.4,0.4c0,1,0,2,0,2.9c0,0.8,0.2,1,1,1c0.5,0,0.6,0.2,0.6,0.6c0,0.7,0,1.4,0,2.2
		c0,0.3-0.1,0.4-0.3,0.4c-0.9,0-1.8,0-2.7,0c-1.1,0-1.9-1-1.9-2.1c0-1.6,0-3.2,0-4.8c0-0.4,0-0.6-0.5-0.5c-0.3,0-0.3-0.1-0.3-0.3
		c0-0.5,0-1.1,0-1.6c0-0.3,0.1-0.4,0.4-0.4c0.4,0.1,0.4-0.2,0.4-0.5c0-1.8,0-3.5,0-5.3c0-0.4,0.1-0.6,0.5-0.5c0.8,0,1.7,0,2.5,0
		c0.3,0,0.5,0.1,0.4,0.4C103.7,37.2,103.7,38.1,103.7,39z"/>
	<path class="st3" d="M140.7,43.9c0,2.5,0,5,0,7.4c0,0.5-0.2,0.6-0.6,0.6c-0.8,0-1.7,0-2.5,0c-0.4,0-0.5-0.1-0.5-0.5
		c0-5,0-10.1,0-15.1c0-0.4,0.1-0.5,0.5-0.5c0.9,0,1.8,0,2.7,0c0.4,0,0.5,0.1,0.5,0.5C140.7,38.8,140.7,41.3,140.7,43.9z"/>
	<path class="st3" d="M113.8,26.9c0-2.5,0-5,0-7.5c0-0.4,0.1-0.6,0.5-0.5c0.9,0,1.8,0,2.7,0c0.3,0,0.4,0.1,0.4,0.4
		c0,5.1,0,10.2,0,15.2c0,0.3-0.1,0.4-0.4,0.4c-0.9,0-1.8,0-2.7,0c-0.4,0-0.5-0.1-0.5-0.5C113.8,31.9,113.8,29.4,113.8,26.9z"/>
	<path class="st3" d="M118.8,58.9c-0.7,0.8-1.4,0.8-2.2,0.2c-0.1-0.1-0.1-0.1-0.3,0c-1.3,0.8-1.9,0.6-2.4-0.8
		c-0.2,0.3-0.3,0.5-0.4,0.8c-0.2,0.3-0.5,0.5-0.9,0.6c-0.8,0.2-1.4-0.3-1.3-1.1c0-0.6,0.2-1.3,0.3-1.9c0-0.2,0.1-0.3,0-0.5
		c-0.4,0.3-0.6,0.7-0.7,1.2c-0.1,0.6-0.2,1.2-0.3,1.9c0,0.3-0.2,0.4-0.4,0.4c-1.4,0.1-1.4,0.1-1.1-1.3c0.1-0.7,0.2-1.3,0.3-2
		c0,0,0-0.1-0.1-0.1c-0.4,0.2-0.6,0.6-0.7,1.1c-0.1,0.6-0.2,1.2-0.3,1.8c0,0.3-0.1,0.5-0.5,0.5c-1.3,0-1.3,0-1.1-1.3
		c0.1-0.7,0.2-1.4,0.4-2.1c0-0.2,0-0.4-0.3-0.4c-0.1,0-0.2,0-0.2-0.2c0-0.1,0.1-0.1,0.2-0.1c0.6-0.1,1.3-0.1,1.9-0.1
		c0.2,0,0.2,0.1,0.2,0.2c0,0.2,0,0.3-0.1,0.5c0.4-0.3,0.7-0.7,1.3-0.8c0.6-0.1,0.9,0.3,1.1,0.9c0.3-0.4,0.6-0.7,1.1-0.8
		c0.7-0.2,1.2,0.1,1.2,0.9s-0.3,1.6-0.4,2.4c0,0.1-0.1,0.3,0,0.4c0.2,0,0.3-0.1,0.3-0.2c0.2-0.6,0.7-1,0.8-1.7
		c0.2-0.8,0.6-1.5,1.5-1.8c0.2-0.1,0.3,0,0.5-0.1c0.4-0.1,0.5,0.6,1,0.3c0.3-0.2,0.8,0,1.2-0.1c0.4,0,0.5,0.1,0.4,0.5
		c-0.2,0.9-0.3,1.8-0.5,2.7c0,0.1-0.1,0.3,0.1,0.5c0.4-0.3,0.4-0.8,0.6-1.2c0.4,0.2,0,0.5,0.1,0.7C119.1,58.6,119.1,58.8,118.8,58.9
		z"/>
	<path class="st3" d="M97.2,59c0.3-0.2,0.4-0.5,0.5-0.8c0.2-0.6,0.7-0.3,1.1-0.3c0.4,0,0.4,0.4,0.3,0.7c-0.2,0.5,0.1,0.6,0.4,0.6
		c0.2,0,0.4-0.1,0.5-0.3c0.1-0.2,0-0.4-0.1-0.5c-0.3-0.3-0.7-0.5-1-0.8c-0.8-0.7-0.6-1.9,0.4-2.3c0.5-0.2,1.1-0.3,1.7-0.1
		c0.3,0.1,0.5,0.2,0.6,0.5c0.1,0.2,0.1,0.5-0.1,0.7c-0.2,0.2-0.3,0.2-0.6,0.1s-0.3-0.3-0.3-0.5s0.1-0.4-0.2-0.5
		c-0.2-0.1-0.4,0-0.5,0.2s0,0.3,0.2,0.4c0.4,0.3,0.7,0.6,1.1,0.9c0.8,0.6,0.4,1.7-0.2,2.2c-0.9,0.6-2.3,0.4-3-0.5
		c-0.4,0.6-0.8,1-1.5,0.8c-0.7-0.1-0.9-0.5-0.8-1.2c0.1-0.7,0.2-1.3,0.3-2c0-0.1,0.1-0.2-0.1-0.3c-0.4,0.4-0.6,0.9-0.7,1.4
		c-0.1,0.4-0.1,0.8-0.2,1.1c-0.1,0.3,0,0.7-0.2,0.8c-0.5,0.1-1,0.1-1.4,0c-0.2,0-0.1-0.3-0.1-0.4c0.1-0.7,0.3-1.5,0.4-2.2
		c0-0.2,0-0.4,0-0.7c-0.4,0.3-0.7,0.7-0.7,1.3c-0.1,0.6-0.2,1.2-0.3,1.8c0,0.2-0.1,0.3-0.4,0.3c-1.4,0.1-1.4,0.1-1.2-1.3
		c0.1-0.7,0.2-1.3,0.3-2c0-0.2,0.1-0.4-0.2-0.4c-0.1,0-0.2,0-0.2-0.1c0-0.2,0.1-0.2,0.2-0.2c0.6,0,1.2-0.1,1.9-0.1
		c0.2,0,0.2,0.1,0.2,0.2c0,0.2-0.1,0.3-0.1,0.6c0.4-0.4,0.8-0.7,1.3-0.8c0.6-0.1,0.9,0.3,1.1,0.8c0.4-0.3,0.6-0.7,1.1-0.8
		c0.8-0.2,1.3,0.2,1.2,1c-0.1,0.7-0.2,1.4-0.4,2.1C97.2,58.5,97.1,58.7,97.2,59z"/>
	<path class="st3" d="M141.1,58.9c0.4-0.2,0.5-0.6,0.6-0.9c0-0.1,0.1-0.2,0.2-0.2c0,0,0.1,0.1,0.1,0.2c0,0.8-0.9,1.6-1.7,1.5
		c-0.7-0.1-1-0.5-0.9-1.2s0.2-1.3,0.3-2c0-0.1,0.1-0.2-0.1-0.4c-0.5,0.4-0.7,0.9-0.8,1.5c-0.1,0.5-0.2,1-0.2,1.5
		c0,0.3-0.1,0.4-0.4,0.4c-1.4,0.1-1.4,0.1-1.2-1.3c0.1-0.7,0.3-1.3,0.3-2.1c-0.5,0.4-0.7,0.9-0.8,1.4s-0.2,1.1-0.3,1.6
		c0,0.3-0.1,0.4-0.5,0.4c-0.2,0-0.4,0-0.6,0c-0.8,0-0.8,0-0.6-0.8s0.3-1.7,0.4-2.5c0-0.2,0.1-0.4-0.3-0.4c-0.1,0-0.2,0-0.2-0.1
		s0.1-0.2,0.2-0.2c0.6-0.1,1.3-0.1,1.9-0.1c0.2,0,0.2,0.1,0.2,0.3c0,0.2,0,0.3-0.1,0.5c1.4-1.1,1.8-1.1,2.4,0
		c0.3-0.3,0.7-0.7,1.2-0.8c0.6-0.1,1.1,0.2,1.1,0.9c0,0.8-0.2,1.6-0.4,2.3C141,58.5,140.9,58.7,141.1,58.9z"/>
	<path class="st3" d="M118.8,58.9c0.1-0.1,0.1-0.3,0.2-0.4c0.1-0.1,0.2-0.2,0.4-0.3c0.2-0.2,0.3-0.3,0.1-0.6
		c-0.5-0.8-0.1-1.9,0.8-2.2c1-0.4,2.1-0.4,3,0.4c0.1-0.2,0.1-0.3,0.2-0.5c0.1-0.3,0.4-0.4,0.7-0.3s0.4,0.4,0.3,0.7
		c-0.1,0.3-0.3,0.5-0.6,0.3c-0.3-0.1-0.3,0-0.3,0.2c-0.2,1.8-1.3,2.5-3.1,2c-0.1,0-0.2-0.1-0.4-0.1s-0.3,0-0.4,0.2
		c0,0.2,0.1,0.3,0.3,0.3s0.4,0.1,0.7,0.1c0.4,0,0.9,0,1.3,0c0.5,0,1.1,0.1,1.3,0.6c0.2,0.6,0.1,1.2-0.3,1.7
		c-0.3,0.4-0.7,0.6-1.1,0.7c-0.8,0.2-1.6,0.2-2.5,0c-0.3-0.1-0.7-0.2-0.8-0.5c-0.1-0.4,0.2-0.6,0.5-0.8
		C118.7,59.9,118.7,59.4,118.8,58.9z"/>
	<path class="st3" d="M104,55.6c0.4-0.4,0.8-0.6,1.4-0.4c0.6,0.2,0.8,0.8,0.9,1.4c0.1,1-0.3,1.9-1.1,2.6c-0.6,0.5-1.1,0.5-1.9-0.1
		c-0.1,0.8-0.3,1.5-0.4,2.2c0,0.2,0.1,0.2,0.3,0.2c0.1,0,0.2,0,0.2,0.1s-0.1,0.2-0.2,0.2c-0.8,0-1.6,0-2.4,0c-0.1,0-0.2,0-0.2-0.2
		c0-0.1,0.1-0.2,0.2-0.1c0.4,0,0.4-0.2,0.5-0.5c0.3-1.6,0.6-3.2,0.8-4.8c0-0.3,0.2-0.6-0.3-0.6c-0.1,0-0.2-0.1-0.2-0.2
		s0.1-0.1,0.2-0.1c0.6,0,1.3-0.1,1.9-0.1C104.1,55.2,103.9,55.5,104,55.6z"/>
	<path class="st3" d="M130.1,57.6c0-1.4,1.1-2.5,2.5-2.4c1.2,0,2,0.8,2,1.8c0,1.5-1.1,2.6-2.6,2.5C130.9,59.5,130.1,58.7,130.1,57.6
		z"/>
	<path class="st3" d="M127.8,58.2c0,0.3-0.1,0.7,0.3,0.8c0.3,0.1,0.6,0,0.9-0.2c0.3-0.2,0.5-0.5,0.7-0.7c0.1-0.1,0.1-0.2,0.3-0.1
		c0.1,0.1,0,0.2,0,0.3c-0.4,0.9-1.6,1.4-2.6,1.1c-0.8-0.3-1.3-1.1-1.1-2.1c0.2-1.5,1.7-2.5,3.1-2.1c0.6,0.2,0.9,0.7,0.8,1.3
		c-0.1,0.5-0.5,0.8-1,0.7c-0.5-0.1-0.7-0.6-0.6-1.1c0-0.2,0.5-0.5,0.1-0.6c-0.3-0.1-0.3,0.3-0.4,0.6C128,56.8,127.8,57.5,127.8,58.2
		z"/>
	<path class="st1" d="M53,40.3c-0.2-2.7-0.5-5.4-1.4-7.9c-1.3-3.7-3.7-6.3-7.6-7.3c-3.1-0.8-6.3-0.8-9.5-0.1
		c-3.6,0.8-6.2,2.9-7.6,6.4c-1.1,2.5-1.5,5.2-1.7,7.9c-0.3,3.4-0.3,6.8-0.1,10.2c0.2,3,0.6,6,1.7,8.8c1.3,3.5,3.7,5.8,7.4,6.7
		c3.1,0.8,6.3,0.8,9.5,0.1c3.2-0.7,5.6-2.5,7.2-5.4c0.6-1.2,1.1-2.5,1.4-3.9c0.8-3.5,1-7.1,1-11.2C53.2,43.4,53.1,41.9,53,40.3z
		 M42.5,45c0,2.9,0,5.8-0.2,8.7c-0.1,1.1-0.2,2.2-0.7,3.2c-0.4,1.1-1.3,1.6-2.4,1.6c-1.2,0-2.1-0.4-2.6-1.5c-0.6-1.5-0.7-3-0.8-4.6
		c-0.2-4.3-0.2-8.6-0.1-12.9c0-1.8,0.1-3.6,0.5-5.4c0.1-0.3,0.2-0.6,0.3-0.9c0.5-1.3,1.3-1.8,2.6-1.8c1.3,0,2.1,0.6,2.6,1.8
		c0.5,1.4,0.6,2.8,0.7,4.3C42.5,40.1,42.5,42.5,42.5,45z"/>
	<path class="st1" d="M83.7,34.4c-0.7-4-2.7-7-6.6-8.5c-1.3-0.4-2.5-0.7-3.9-0.7c-5.2,0-10.4,0-15.6,0c-0.4,0-0.5,0.1-0.5,0.5
		c0,12.8,0,25.6,0,38.5c0,0.4,0.1,0.5,0.5,0.5c3.1,0,6.1,0,9.2,0c0.5,0,0.6-0.1,0.6-0.6c0-4.6,0-9.1,0-13.7c0-0.8-0.1-0.8,0.7-0.7
		c3.1,0,6.2,0.1,9.2-1c0.2-0.1,0.3-0.2,0.5-0.2c3-1.4,4.8-3.7,5.6-6.9C84,39.2,84.1,36.8,83.7,34.4z M73.1,39.4
		c-0.4,1.8-1.5,2.8-3.3,2.9c-0.6,0-1.3,0-1.9,0c-0.4,0-0.5-0.1-0.5-0.5c0-1.5,0-2.9,0-4.4c0-1.4,0-2.8,0-4.2c0-0.5,0.1-0.6,0.6-0.6
		c0.6,0,1.1,0,1.7,0c1.9,0.1,3.1,1.1,3.5,2.9C73.4,36.9,73.4,38.1,73.1,39.4z"/>
	<path class="st1" d="M23.7,75.8c-0.3-2-0.9-4-2.3-5.6c-1.8-2.2-4.2-2.9-6.8-3c-4.2-0.1-8.4,0-12.6,0c-0.5,0-0.6,0.1-0.6,0.6
		c0,5.5,0,11,0,16.5s0,11,0,16.5c0,0.3,0,0.6,0.4,0.6c4.3,0,8.6,0.1,12.9-0.1c2.4-0.1,4.5-0.7,6.2-2.5c1.5-1.5,2.2-3.5,2.6-5.5
		c0.4-2.1,0.6-4.1,0.6-6.2C24.3,83.3,24.4,79.5,23.7,75.8z M15.2,91c-0.1,0.8-0.2,1.6-0.5,2.3c-0.4,0.9-1,1.3-1.9,1.5
		c-0.8,0.1-1.6,0-2.4,0.1c-0.3,0-0.3-0.1-0.3-0.4c0-0.6,0-1.3,0-1.9c0-6.1,0-12.3,0-18.4c0-0.4,0.1-0.6,0.6-0.6
		c0.7,0.1,1.5,0,2.2,0.1c1,0.2,1.6,0.7,2,1.7c0.4,1.1,0.5,2.2,0.5,3.3c0.1,1.9,0.1,3.8,0.1,5.5C15.4,86.5,15.4,88.8,15.2,91z"/>
	<path class="st4" d="M77,113.3c0-0.3,0-0.6,0-0.9c0-0.2-0.2-0.5,0.2-0.5c0.3,0,0.6,0.2,0.6,0.6C77.7,113,77.4,113.3,77,113.3z"/>
	<path class="st5" d="M76.3,112c0,0.5,0,0.9,0,1.3c-0.4-0.1-0.7-0.3-0.7-0.8C75.6,112.1,76,112.1,76.3,112z"/>
	<path class="st6" d="M77,115.9c0-0.3,0-0.5,0-0.6c0-0.2-0.1-0.3,0.1-0.5c0.1-0.1,0.2,0.1,0.3,0.1c0.1,0.1,0.2,0.3,0.2,0.5
		C77.4,115.7,77.2,115.8,77,115.9z"/>
	<path class="st7" d="M76.3,114.8c0,0.4,0,0.7,0,1C75.7,115.5,75.7,115.2,76.3,114.8z"/>
	<path class="st8" d="M77,116.7c0.3,0.4,0.2,0.6,0,0.9C76.9,117.3,76.9,117,77,116.7z"/>
	<path class="st9" d="M76.3,116.8c0.1,0.2,0.1,0.4,0,0.6C76.1,117.2,76.1,117.1,76.3,116.8z"/>
	<path class="st10" d="M76.9,119c-0.1-0.1-0.1-0.2,0-0.3H77C77.1,118.9,77,119,76.9,119z"/>
	<path class="st11" d="M108,28.5c0-0.9,0-1.9,0-2.8c0-0.4,0.2-0.8,0.7-0.8c0.4,0,0.8,0.3,0.8,0.8c0,1.9,0,3.9,0,5.8
		c0,0.4-0.3,0.7-0.7,0.8c-0.4,0-0.7-0.3-0.7-0.8C108,30.4,108,29.5,108,28.5z"/>
	<path class="st0" d="M112.5,40.8c0-0.7,0-1.3,0-2c0-0.4,0.1-0.5,0.5-0.5c0.7-0.1,1.3,0.3,1.4,1.1c0.1,0.9,0.1,1.9,0,2.8
		c-0.1,0.8-0.8,1.3-1.5,1.1c-0.3-0.1-0.4-0.2-0.3-0.5C112.5,42.1,112.5,41.4,112.5,40.8z"/>
	<path class="st11" d="M123.6,47.2c0,0.4,0,0.9,0,1.3c0,0.4-0.2,0.8-0.7,0.8s-0.7-0.4-0.7-0.9s-0.1-0.9,0-1.4c0.1-0.6,0.6-1,1.1-1.3
		c0.3-0.2,0.3,0.1,0.3,0.2C123.6,46.4,123.6,46.8,123.6,47.2L123.6,47.2z"/>
	<path class="st12" d="M116.7,56.7c0,0.7-0.1,1.3-0.4,1.8c-0.1,0.2-0.2,0.4-0.4,0.3s-0.1-0.3-0.1-0.5c0-0.8,0.2-1.6,0.4-2.3
		c0.1-0.2,0.1-0.5,0.4-0.4c0.3,0,0.2,0.3,0.3,0.5C116.7,56.4,116.7,56.6,116.7,56.7z"/>
	<path class="st12" d="M120.7,61.5c-0.3,0-0.6,0-1-0.1c-0.2-0.1-0.5-0.2-0.4-0.5s0.3-0.3,0.6-0.3c0.7,0,1.4,0,2.1,0
		c0.2,0,0.5,0,0.5,0.2s-0.2,0.3-0.4,0.4C121.7,61.5,121.2,61.5,120.7,61.5z"/>
	<path class="st13" d="M121,57.4c0.1-0.5,0.2-1.1,0.3-1.6c0.1-0.2,0.1-0.4,0.3-0.4s0.2,0.2,0.2,0.4c-0.1,0.5-0.2,1.1-0.3,1.6
		c0,0.2-0.1,0.5-0.4,0.4C120.9,57.9,121.1,57.6,121,57.4z"/>
	<path class="st12" d="M103.5,58.2c0.1-0.8,0.2-1.6,0.7-2.3c0.1-0.1,0.2-0.3,0.4-0.3c0.2,0.1,0.1,0.3,0.1,0.4
		c-0.1,0.8-0.2,1.5-0.5,2.3c-0.1,0.2-0.1,0.6-0.5,0.6C103.5,58.8,103.5,58.5,103.5,58.2z"/>
	<path class="st12" d="M131.8,58.4c0.1-0.8,0.2-1.6,0.5-2.4c0.1-0.2,0.2-0.6,0.5-0.5s0.3,0.3,0.3,0.6c-0.1,0.8-0.2,1.6-0.4,2.4
		c-0.1,0.3-0.1,0.7-0.5,0.6C131.7,59.1,131.8,58.7,131.8,58.4z"/>
</g>
</svg>
